#!OML:ASF I:\Actors\actors\Patient Classification 2\Patient 1\Session 1\actor1.ASF
:FULLY-SPECIFIED
:DEGREES
645
root 0.947543 18.5511 5.21935 16.948 28.2507 4.94299
lowerback 21.8507 2.87156 9.84829
upperback 4.79313 6.53821 6.19684
thorax -6.55584 3.06758 -0.558245
lowerneck 0.839769 -17.4424 -14.658
upperneck 10.1809 -24.5626 15.4445
head 6.71211 -11.9072 5.01595
rclavicle 1.90833e-014 -2.8625e-014
rhumerus 12.3745 -17.5334 -48.5328
rradius 50.9256
rwrist -33.1329
rhand -14.222 -73.7982
rfingers 7.12502
rthumb 11.9151 -256.561
lclavicle 1.90833e-014 -2.8625e-014
lhumerus -47.9464 -25.9645 106.656
lradius 91.7199
lwrist 35.2667
lhand -10.33 -8.31538
lfingers 7.12502
lthumb 15.6659 21.0704
rfemur -11.649 -18.1919 7.89467
rtibia 16.2678
rfoot -24.8572 -14.4698
rtoes -8.21311
lfemur -33.5748 -13.4474 -20.1216
ltibia 34.7525
lfoot -13.9886 -1.03164
ltoes -52.4459
646
root 0.947491 18.5481 5.20947 17.1015 28.2673 5.11824
lowerback 21.9102 2.83585 9.95428
upperback 4.82509 6.52394 6.23361
thorax -6.54516 3.06037 -0.575089
lowerneck 1.25059 -17.3775 -14.3543
upperneck 9.42065 -24.4496 15.6264
head 6.37218 -11.8832 5.11237
rclavicle 7.15625e-014 3.81667e-014
rhumerus 12.9045 -18.2296 -48.3416
rradius 50.7097
rwrist -33.8988
rhand -13.6342 -75.2769
rfingers 7.12502
rthumb 12.4818 -255.116
lclavicle 7.15625e-014 3.81667e-014
lhumerus -48.141 -26.0323 106.731
lradius 91.7785
lwrist 35.0994
lhand -10.0757 -9.10195
lfingers 7.12502
lthumb 15.9107 20.2645
rfemur -11.9589 -18.3545 7.74246
rtibia 16.6812
rfoot -24.8788 -14.3167
rtoes -8.08398
lfemur -33.656 -13.3659 -20.3149
ltibia 34.6974
lfoot -13.9031 -1.173
ltoes -52.3997
647
root 0.949397 18.5456 5.19918 17.2591 28.3092 5.30437
lowerback 21.9427 2.77016 10.0172
upperback 4.83956 6.46407 6.30902
thorax -6.55283 3.03147 -0.51423
lowerneck 1.0655 -17.4442 -14.1483
upperneck 9.68172 -24.4978 15.2148
head 6.41089 -11.8968 4.93721
rclavicle 7.95139e-015 -2.22639e-014
rhumerus 13.1908 -18.0562 -48.0102
rradius 50.2743
rwrist -33.0989
rhand -14.0826 -73.844
rfingers 7.12502
rthumb 12.0495 -256.523
lclavicle 7.95139e-015 -2.22639e-014
lhumerus -48.2031 -25.8936 106.84
lradius 91.2694
lwrist 34.5281
lhand -9.53939 -11.5738
lfingers 7.12502
lthumb 16.4272 17.7507
rfemur -12.2142 -18.5572 7.57709
rtibia 17.0137
rfoot -24.8565 -14.1809
rtoes -8.09298
lfemur -33.7377 -13.29 -20.5239
ltibia 34.6436
lfoot -13.8079 -1.32387
ltoes -52.3849
648
root 0.951555 18.5436 5.19103 17.3852 28.343 5.48251
lowerback 21.9471 2.71594 10.0785
upperback 4.85473 6.41197 6.35932
thorax -6.54134 3.0071 -0.479766
lowerneck 1.16067 -17.4905 -14.2225
upperneck 9.49358 -24.5717 15.4151
head 6.38348 -11.9372 5.00597
rclavicle -6.36111e-015 -1.62208e-013
rhumerus 13.4513 -18.2556 -47.8651
rradius 50.0953
rwrist -33.1232
rhand -13.9676 -73.7608
rfingers 7.12502
rthumb 12.1604 -256.613
lclavicle -6.36111e-015 -1.62208e-013
lhumerus -48.2738 -25.8799 107.034
lradius 91.8028
lwrist 35.0193
lhand -9.83691 -9.35738
lfingers 7.12502
lthumb 16.1407 19.9905
rfemur -12.407 -18.7389 7.41144
rtibia 17.2859
rfoot -24.8272 -14.0532
rtoes -7.91455
lfemur -33.7834 -13.2801 -20.7033
ltibia 34.5954
lfoot -13.7423 -1.4383
ltoes -52.2845
649
root 0.953619 18.5418 5.18582 17.4894 28.3347 5.66581
lowerback 21.935 2.69467 10.1101
upperback 4.85759 6.38889 6.35542
thorax -6.52933 2.99617 -0.494429
lowerneck 1.40262 -17.5363 -14.35
upperneck 8.97783 -24.6696 15.9936
head 6.2913 -11.9963 5.20942
rclavicle 3.18055e-015 -3.49861e-014
rhumerus 13.4753 -18.41 -47.7894
rradius 50.0725
rwrist -33.1378
rhand -13.9544 -73.704
rfingers 7.12502
rthumb 12.173 -256.67
lclavicle 3.18055e-015 -3.49861e-014
lhumerus -48.3724 -25.941 107.15
lradius 92.016
lwrist 35.2109
lhand -9.86142 -8.54828
lfingers 7.12502
lthumb 16.1171 20.8015
rfemur -12.5567 -18.8392 7.22764
rtibia 17.5185
rfoot -24.7799 -14.0127
rtoes -7.94004
lfemur -33.7907 -13.2946 -20.8839
ltibia 34.55
lfoot -13.7165 -1.49456
ltoes -52.1654
650
root 0.955571 18.5406 5.18223 17.5313 28.2967 5.76491
lowerback 21.9353 2.66867 10.1287
upperback 4.84213 6.3614 6.35826
thorax -6.54679 2.98144 -0.49507
lowerneck 1.3571 -17.6008 -14.1178
upperneck 9.07121 -24.7487 15.8804
head 6.29559 -12.0249 5.1314
rclavicle 5.88403e-014 1.90833e-014
rhumerus 13.3745 -18.5283 -47.8198
rradius 50.3027
rwrist -33.6371
rhand -13.8086 -74.3698
rfingers 7.12502
rthumb 12.3136 -256.013
lclavicle 5.88403e-014 1.90833e-014
lhumerus -48.4909 -25.9639 107.238
lradius 92.0218
lwrist 35.2302
lhand -9.92661 -8.53775
lfingers 7.12502
lthumb 16.0543 20.8171
rfemur -12.6682 -18.8491 7.11944
rtibia 17.7077
rfoot -24.7442 -14.0916
rtoes -8.43588
lfemur -33.7689 -13.2899 -20.9928
ltibia 34.5073
lfoot -13.7183 -1.46962
ltoes -52.2098
651
root 0.958471 18.5405 5.18023 17.5021 28.2352 5.79592
lowerback 21.933 2.63262 10.1485
upperback 4.82694 6.32184 6.37054
thorax -6.56452 2.96103 -0.482955
lowerneck 1.36177 -17.648 -14.0887
upperneck 9.19511 -24.8338 15.9386
head 6.35138 -12.0571 5.12872
rclavicle 6.36111e-015 9.54166e-015
rhumerus 13.1597 -18.5549 -47.9826
rradius 50.7121
rwrist -34.1911
rhand -13.5644 -75.0314
rfingers 7.12502
rthumb 12.5491 -255.365
lclavicle 6.36111e-015 9.54166e-015
lhumerus -48.5988 -25.9399 107.321
lradius 91.9692
lwrist 35.2409
lhand -10.0981 -8.60253
lfingers 7.12502
lthumb 15.8891 20.7656
rfemur -12.7087 -18.7801 7.05836
rtibia 17.8403
rfoot -24.7344 -14.2094
rtoes -8.99214
lfemur -33.6985 -13.2569 -21.0559
ltibia 34.4754
lfoot -13.7235 -1.46215
ltoes -52.2746
652
root 0.962468 18.5409 5.18076 17.4491 28.1485 5.83545
lowerback 21.8775 2.59727 10.1259
upperback 4.83255 6.2628 6.3742
thorax -6.53626 2.93496 -0.448354
lowerneck 1.29383 -17.6689 -14.0902
upperneck 9.43255 -24.8866 15.9621
head 6.44924 -12.068 5.11453
rclavicle -1.43125e-014 4.13472e-014
rhumerus 12.7194 -18.0713 -48.1616
rradius 51.0463
rwrist -33.7379
rhand -14.0119 -73.4779
rfingers 7.12502
rthumb 12.1177 -256.893
lclavicle -1.43125e-014 4.13472e-014
lhumerus -48.6313 -25.8615 107.396
lradius 91.8732
lwrist 35.2539
lhand -10.2125 -8.73844
lfingers 7.12502
lthumb 15.779 20.6384
rfemur -12.6742 -18.629 6.95934
rtibia 17.9079
rfoot -24.7772 -14.278
rtoes -9.15643
lfemur -33.5896 -13.2056 -21.1456
ltibia 34.4614
lfoot -13.7311 -1.48451
ltoes -52.1983
653
root 0.966879 18.5408 5.18344 17.3624 28.0526 5.82898
lowerback 21.7848 2.56149 10.1114
upperback 4.84368 6.19894 6.37852
thorax -6.4817 2.90797 -0.413879
lowerneck 1.2588 -17.6627 -14.0288
upperneck 9.5461 -24.8889 15.957
head 6.48279 -12.0607 5.09975
rclavicle 1.27222e-014 -5.08889e-014
rhumerus 12.2944 -18.1974 -48.576
rradius 51.9629
rwrist -34.9822
rhand -13.4253 -75.0704
rfingers 7.12502
rthumb 12.6832 -255.335
lclavicle 1.27222e-014 -5.08889e-014
lhumerus -48.6402 -25.7756 107.464
lradius 91.8038
lwrist 35.304
lhand -10.2164 -8.83389
lfingers 7.12502
lthumb 15.7753 20.5433
rfemur -12.5892 -18.4117 6.89395
rtibia 17.9182
rfoot -24.8774 -14.3134
rtoes -9.01287
lfemur -33.4703 -13.1787 -21.1857
ltibia 34.4651
lfoot -13.7826 -1.43718
ltoes -52.1734
654
root 0.971676 18.5404 5.18689 17.2447 27.9354 5.77071
lowerback 21.7031 2.54264 10.1047
upperback 4.81615 6.16196 6.35823
thorax -6.47004 2.89016 -0.418993
lowerneck 1.30935 -17.669 -14.0466
upperneck 9.59055 -24.9322 16.1397
head 6.52295 -12.075 5.1519
rclavicle -8.26944e-014 -3.18055e-015
rhumerus 11.5652 -17.9368 -48.9777
rradius 52.8131
rwrist -35.4182
rhand -13.299 -75.859
rfingers 7.12502
rthumb 12.8049 -254.554
lclavicle -8.26944e-014 -3.18055e-015
lhumerus -48.6808 -25.7527 107.52
lradius 91.724
lwrist 35.3604
lhand -10.1367 -8.86275
lfingers 7.12502
lthumb 15.852 20.5083
rfemur -12.4847 -18.2039 6.88048
rtibia 17.8861
rfoot -24.9224 -14.3714
rtoes -8.99503
lfemur -33.3439 -13.1793 -21.1662
ltibia 34.478
lfoot -13.8556 -1.36628
ltoes -52.1698
